<?xml version="1.0" encoding="UTF-8" standalone="no"?>
<svg
   width="290px"
   height="100px"
   viewBox="98.7995361328125 14 302.400927734375 122"
   preserveAspectRatio="xMidYMid"
   version="1.1"
   id="svg4"
   sodipodi:docname="TODOS.svg"
   inkscape:version="1.3.2 (091e20e, 2023-11-25, custom)"
   xmlns:inkscape="http://www.inkscape.org/namespaces/inkscape"
   xmlns:sodipodi="http://sodipodi.sourceforge.net/DTD/sodipodi-0.dtd"
   xmlns="http://www.w3.org/2000/svg"
   xmlns:svg="http://www.w3.org/2000/svg">
  <sodipodi:namedview
     id="namedview4"
     pagecolor="#505050"
     bordercolor="#ffffff"
     borderopacity="1"
     inkscape:showpageshadow="0"
     inkscape:pageopacity="0"
     inkscape:pagecheckerboard="1"
     inkscape:deskcolor="#505050"
     showguides="false"
     inkscape:zoom="2.7116318"
     inkscape:cx="151.20047"
     inkscape:cy="61.03336"
     inkscape:window-width="1366"
     inkscape:window-height="715"
     inkscape:window-x="-8"
     inkscape:window-y="-8"
     inkscape:window-maximized="1"
     inkscape:current-layer="g3" />
  <defs
     id="defs3">
    <linearGradient
       id="editing-glowing-gradient"
       x1="0.8146601955249186"
       x2="0.18533980447508142"
       y1="0.8885729807284856"
       y2="0.11142701927151444">
      <stop
         offset="0"
         stop-color="#67ff43"
         id="stop1"
         style="stop-color:#66ff42;stop-opacity:1;" />
      <stop
         offset="1"
         stop-color="#90ffff"
         id="stop2" />
    </linearGradient>
    <filter
       id="editing-glowing"
       x="-0.11862983"
       y="-0.53416426"
       width="1.2372597"
       height="2.0683285">
      <feGaussianBlur
         in="SourceGraphic"
         result="blur"
         stdDeviation="10"
         id="feGaussianBlur2" />
      <feMerge
         id="feMerge3">
        <feMergeNode
           in="blur"
           id="feMergeNode2" />
        <feMergeNode
           in="SourceGraphic"
           id="feMergeNode3" />
      </feMerge>
    </filter>
  </defs>
  <g
     filter="url(#editing-glowing)"
     id="g4">
    <g
       transform="translate(145.3415207862854, 97.46500015258789)"
       id="g3">
      <path
         d="M6.21-31.17L6.21-31.17L6.21-31.17Q4.03-32.83 4.03-36.38L4.03-36.38L4.03-36.38Q4.03-39.94 6.37-41.79L6.37-41.79L6.37-41.79Q8.70-43.65 12.74-43.65L12.74-43.65L12.74-43.65Q15.30-43.65 21.38-42.75L21.38-42.75L25.73-42.11L25.73-42.11Q27.90-41.86 30.18-41.86L30.18-41.86L30.18-41.86Q32.45-41.86 33.98-42.82L33.98-42.82L33.98-42.82Q36.29-40.77 36.29-37.82L36.29-37.82L36.29-37.82Q36.29-34.88 33.66-32.77L33.66-32.77L33.66-32.77Q30.98-30.53 27.52-30.53L27.52-30.53L27.52-30.53Q25.86-30.53 23.17-30.98L23.17-30.98L23.17-30.98Q20.03-21.12 20.03-14.27L20.03-14.27L20.03-14.27Q20.03-7.42 23.49-3.84L23.49-3.84L23.49-3.84Q21.89-0.96 19.52 0.16L19.52 0.16L19.52 0.16Q17.15 1.28 13.60 1.28L13.60 1.28L13.60 1.28Q10.05 1.28 7.84-0.67L7.84-0.67L7.84-0.67Q5.63-2.62 5.63-6.66L5.63-6.66L5.63-6.66Q5.63-11.33 8.19-19.01L8.19-19.01L8.19-19.01Q10.75-26.62 14.59-32.45L14.59-32.45L14.59-32.45Q12.74-32.64 10.82-32.64L10.82-32.64L10.82-32.64Q6.85-32.64 6.21-31.17ZM35.20-15.62L35.20-15.62L35.20-15.62Q35.20-27.71 41.47-35.33L41.47-35.33L41.47-35.33Q48.13-43.58 59.71-43.58L59.71-43.58L59.71-43.58Q68.10-43.58 72.32-39.52L72.32-39.52L72.32-39.52Q76.54-35.46 76.54-26.88L76.54-26.88L76.54-26.88Q76.54-13.82 69.89-6.21L69.89-6.21L69.89-6.21Q63.30 1.28 52.22 1.28L52.22 1.28L52.22 1.28Q43.58 1.28 39.39-3.04L39.39-3.04L39.39-3.04Q35.20-7.36 35.20-15.62ZM52.03-28.86L52.03-28.86L52.03-28.86Q49.15-17.34 49.15-8.26L49.15-8.26L49.15-8.26Q49.15-6.08 49.89-4.67L49.89-4.67L49.89-4.67Q50.62-3.26 52.58-3.26L52.58-3.26L52.58-3.26Q54.53-3.26 55.74-4.19L55.74-4.19L55.74-4.19Q56.96-5.12 57.92-7.23L57.92-7.23L57.92-7.23Q59.46-10.69 60.90-18.02L60.90-18.02L60.90-18.02Q62.34-25.34 62.46-28.38L62.46-28.38L62.46-28.38Q62.59-31.42 62.59-33.73L62.59-33.73L62.59-33.73Q62.59-36.03 61.89-37.50L61.89-37.50L61.89-37.50Q61.18-38.98 59.30-38.98L59.30-38.98L59.30-38.98Q57.41-38.98 56.13-37.82L56.13-37.82L56.13-37.82Q53.76-35.65 52.03-28.86ZM121.22-26.56L121.22-26.56L121.22-26.56Q121.22 0.70 91.65 0.70L91.65 0.70L91.65 0.70Q86.91 0.70 79.10-0.45L79.10-0.45L86.27-38.27L86.27-38.27Q86.78-40.83 87.10-42.30L87.10-42.30L87.10-42.30Q96.83-43.01 101.15-43.01L101.15-43.01L101.15-43.01Q105.47-43.01 109.44-42.11L109.44-42.11L109.44-42.11Q113.41-41.22 116.03-39.23L116.03-39.23L116.03-39.23Q121.22-35.33 121.22-26.56ZM108.03-28.93L108.03-28.93L108.03-28.93Q108.03-38.46 101.18-38.46L101.18-38.46L100.54-38.46L100.54-38.46Q100.22-38.46 99.90-38.40L99.90-38.40L93.31-4.03L93.31-4.03Q93.57-3.90 93.82-3.90L93.82-3.90L94.34-3.90L94.34-3.90Q96.70-3.90 99.17-5.38L99.17-5.38L99.17-5.38Q101.63-6.85 103.55-9.86L103.55-9.86L103.55-9.86Q108.03-16.83 108.03-28.93ZM125.44-15.62L125.44-15.62L125.44-15.62Q125.44-27.71 131.71-35.33L131.71-35.33L131.71-35.33Q138.37-43.58 149.95-43.58L149.95-43.58L149.95-43.58Q158.34-43.58 162.56-39.52L162.56-39.52L162.56-39.52Q166.78-35.46 166.78-26.88L166.78-26.88L166.78-26.88Q166.78-13.82 160.13-6.21L160.13-6.21L160.13-6.21Q153.54 1.28 142.46 1.28L142.46 1.28L142.46 1.28Q133.82 1.28 129.63-3.04L129.63-3.04L129.63-3.04Q125.44-7.36 125.44-15.62ZM142.27-28.86L142.27-28.86L142.27-28.86Q139.39-17.34 139.39-8.26L139.39-8.26L139.39-8.26Q139.39-6.08 140.13-4.67L140.13-4.67L140.13-4.67Q140.86-3.26 142.82-3.26L142.82-3.26L142.82-3.26Q144.77-3.26 145.98-4.19L145.98-4.19L145.98-4.19Q147.20-5.12 148.16-7.23L148.16-7.23L148.16-7.23Q149.70-10.69 151.14-18.02L151.14-18.02L151.14-18.02Q152.58-25.34 152.70-28.38L152.70-28.38L152.70-28.38Q152.83-31.42 152.83-33.73L152.83-33.73L152.83-33.73Q152.83-36.03 152.13-37.50L152.13-37.50L152.13-37.50Q151.42-38.98 149.54-38.98L149.54-38.98L149.54-38.98Q147.65-38.98 146.37-37.82L146.37-37.82L146.37-37.82Q144-35.65 142.27-28.86ZM194.88-29.57L194.88-29.57L194.88-29.57Q195.84-31.49 195.84-33.28L195.84-33.28L195.84-33.28Q195.84-35.07 195.65-36.06L195.65-36.06L195.65-36.06Q195.46-37.06 195.01-37.82L195.01-37.82L195.01-37.82Q194.05-39.49 192.13-39.49L192.13-39.49L192.13-39.49Q189.76-39.49 187.84-37.76L187.84-37.76L187.84-37.76Q185.79-35.97 185.79-33.15L185.79-33.15L185.79-33.15Q185.79-31.36 187.04-29.98L187.04-29.98L187.04-29.98Q188.29-28.61 190.21-27.33L190.21-27.33L190.21-27.33Q192.13-26.05 194.30-24.77L194.30-24.77L194.30-24.77Q196.48-23.49 198.40-21.95L198.40-21.95L198.40-21.95Q202.82-18.43 202.82-13.70L202.82-13.70L202.82-13.70Q202.82-10.50 201.12-7.78L201.12-7.78L201.12-7.78Q199.42-5.06 196.61-3.07L196.61-3.07L196.61-3.07Q190.46 1.28 182.34 1.28L182.34 1.28L182.34 1.28Q175.74 1.28 172.35-0.86L172.35-0.86L172.35-0.86Q168.96-3.01 168.96-6.27L168.96-6.27L168.96-6.27Q168.96-12.10 173.50-13.57L173.50-13.57L173.50-13.57Q174.78-14.02 176.74-14.02L176.74-14.02L176.74-14.02Q178.69-14.02 180.93-13.18L180.93-13.18L180.93-13.18Q179.90-10.56 179.90-8.19L179.90-8.19L179.90-8.19Q179.90-3.07 183.55-3.07L183.55-3.07L183.55-3.07Q185.92-3.07 187.87-4.80L187.87-4.80L187.87-4.80Q189.82-6.53 189.82-8.48L189.82-8.48L189.82-8.48Q189.82-10.43 188.58-11.84L188.58-11.84L188.58-11.84Q187.33-13.25 185.47-14.37L185.47-14.37L185.47-14.37Q183.62-15.49 181.47-16.58L181.47-16.58L181.47-16.58Q179.33-17.66 177.47-19.20L177.47-19.20L177.47-19.20Q173.12-22.72 173.12-28.35L173.12-28.35L173.12-28.35Q173.12-32 174.91-34.85L174.91-34.85L174.91-34.85Q176.70-37.70 179.58-39.62L179.58-39.62L179.58-39.62Q185.34-43.52 192.42-43.52L192.42-43.52L192.42-43.52Q199.49-43.52 202.91-41.41L202.91-41.41L202.91-41.41Q206.34-39.30 206.34-35.71L206.34-35.71L206.34-35.71Q206.34-32.58 203.90-30.59L203.90-30.59L203.90-30.59Q201.79-28.93 199.23-28.93L199.23-28.93L199.23-28.93Q196.67-28.93 194.88-29.57Z"
         fill="url(#editing-glowing-gradient)"
         id="path3"
         style="fill:#008111;fill-opacity:1" />
    </g>
  </g>
  <style
     id="style4">text {
  font-size: 64px;
  font-family: Arial Black;
  dominant-baseline: central;
  text-anchor: middle;
}</style>
</svg>
